<svg width="37" height="36" viewBox="0 0 37 36" fill="none" xmlns="http://www.w3.org/2000/svg">
<rect x="0.775904" y="0.275904" width="35.4482" height="35.4482" rx="6.34579" stroke="#B8CDF9" stroke-width="0.551808"/>
<g clip-path="url(#clip0_1_334)">
<path d="M12.6243 13.2126C12.2664 13.2126 11.9723 13.5071 11.9723 13.865V17.7813C11.9723 18.3804 12.461 18.8707 13.06 18.8707H23.9401C24.5392 18.8707 25.0295 18.3804 25.0295 17.7813V13.865C25.0295 13.5071 24.7333 13.2126 24.3754 13.2126H12.6243ZM13.4952 14.517H15.2366C15.2935 14.5183 15.3477 14.5418 15.3874 14.5824C15.4272 14.6231 15.4495 14.6778 15.4495 14.7347C15.4495 14.7916 15.4272 14.8462 15.3874 14.8869C15.3477 14.9276 15.2935 14.951 15.2366 14.9523H13.4952C13.4383 14.951 13.3842 14.9276 13.3444 14.8869C13.3046 14.8462 13.2823 14.7916 13.2823 14.7347C13.2823 14.6778 13.3046 14.6231 13.3444 14.5824C13.3842 14.5418 13.4383 14.5183 13.4952 14.517ZM16.1054 14.517H16.5411C16.598 14.5183 16.6521 14.5418 16.6919 14.5824C16.7317 14.6231 16.754 14.6778 16.754 14.7347C16.754 14.7916 16.7317 14.8462 16.6919 14.8869C16.6521 14.9276 16.598 14.951 16.5411 14.9523H16.1054C16.0485 14.951 15.9944 14.9276 15.9546 14.8869C15.9148 14.8462 15.8925 14.7916 15.8925 14.7347C15.8925 14.6778 15.9148 14.6231 15.9546 14.5824C15.9944 14.5418 16.0485 14.5183 16.1054 14.517ZM13.4952 17.1293H23.5049C23.6292 17.1293 23.7234 17.2235 23.7234 17.3478V18.4355H13.2768V17.3478C13.2768 17.2235 13.3709 17.1293 13.4952 17.1293ZM13.9194 17.5646C13.6182 17.5798 13.6405 18.0151 13.9304 17.9998H23.0696C23.3599 17.9998 23.3599 17.5646 23.0696 17.5646H13.9194ZM15.0156 19.7425C14.9644 19.7416 14.9131 19.7593 14.8736 19.8007C14.4043 20.2922 14.5855 20.9698 14.8303 21.375C15.0927 21.8655 15.056 22.1735 14.8736 22.4096C14.6609 22.6851 15.0064 22.898 15.1644 22.7326C15.6337 22.2411 15.4525 21.5635 15.2077 21.1583C14.9453 20.6678 14.982 20.3598 15.1644 20.1237C15.3239 19.9171 15.1693 19.7454 15.0156 19.7425ZM16.7566 19.7425C16.7053 19.7416 16.6541 19.7593 16.6146 19.8007C16.1452 20.2922 16.3265 20.9698 16.5713 21.375C16.8337 21.8655 16.7969 22.1735 16.6146 22.4096C16.4018 22.6851 16.7474 22.898 16.9053 22.7326C17.3747 22.2411 17.1934 21.5635 16.9487 21.1583C16.6862 20.6678 16.723 20.3598 16.9053 20.1237C17.0649 19.9171 16.9103 19.7454 16.7566 19.7425ZM18.4975 19.7425C18.4462 19.7416 18.395 19.7593 18.3556 19.8007C17.8862 20.2922 18.0674 20.9698 18.3122 21.375C18.5747 21.8655 18.5379 22.1735 18.3556 22.4096C18.1428 22.6851 18.4883 22.898 18.6463 22.7326C19.1157 22.2411 18.9344 21.5635 18.6896 21.1583C18.4272 20.6678 18.4639 20.3598 18.6463 20.1237C18.8059 19.9171 18.6512 19.7454 18.4975 19.7425ZM20.2385 19.7425C20.1872 19.7416 20.136 19.7593 20.0965 19.8007C19.6271 20.2922 19.8084 20.9698 20.0532 21.375C20.3156 21.8655 20.2789 22.1735 20.0965 22.4096C19.8837 22.6851 20.2293 22.898 20.3872 22.7326C20.8566 22.2411 20.6754 21.5635 20.4306 21.1583C20.1681 20.6678 20.2049 20.3598 20.3872 20.1237C20.5468 19.9171 20.3922 19.7454 20.2385 19.7425ZM21.9794 19.7425C21.9281 19.7416 21.877 19.7593 21.8375 19.8007C21.3681 20.2922 21.5493 20.9698 21.7941 21.375C22.0566 21.8655 22.0198 22.1735 21.8375 22.4096C21.6247 22.6851 21.9702 22.898 22.1282 22.7326C22.5976 22.2411 22.4163 21.5635 22.1715 21.1583C21.9091 20.6678 21.9459 20.3598 22.1282 20.1237C22.2878 19.9171 22.1331 19.7454 21.9794 19.7425Z" fill="#8B939F"/>
</g>
<defs>
<clipPath id="clip0_1_334">
<rect width="13.9277" height="13.9277" fill="white" transform="translate(11.5362 11.0361)"/>
</clipPath>
</defs>
</svg>
