<svg width="35" height="35" viewBox="0 0 35 35" fill="none" xmlns="http://www.w3.org/2000/svg">
<path d="M21.5194 7.64617C19.9836 9.18474 17.0701 8.7605 17.0701 8.7605C17.0701 8.7605 16.6466 5.84175 18.1824 4.30318C19.7182 2.76462 22.6317 3.18885 22.6317 3.18885C22.6317 3.18885 23.0552 6.1076 21.5194 7.64617Z" stroke="white" stroke-width="1.41844" stroke-linejoin="round"/>
<path d="M5.67932 20.2558C5.67932 24.9149 8.79205 30.2662 11.9416 31.3971C13.0335 31.7891 14.1622 31.2481 15.1005 30.5743C15.8123 30.0632 16.6743 29.5752 17.3704 29.5752C18.0666 29.5752 18.9286 30.0632 19.6404 30.5743C20.5787 31.2481 21.7073 31.7891 22.7993 31.3971C25.0373 30.5935 27.2567 27.6589 28.3539 24.356C26.2293 23.7463 24.6774 21.8204 24.6774 19.539C24.6774 17.4488 25.9799 15.6571 27.8321 14.9025C26.6388 12.7793 24.6886 11.6533 22.4853 11.6533C21.3455 11.6533 20.298 12.1136 19.4517 12.6654C18.1011 13.546 16.6397 13.546 15.2891 12.6654C14.4429 12.1136 13.3954 11.6533 12.2556 11.6533C8.62361 11.6533 5.67932 14.713 5.67932 20.2558Z" stroke="white" stroke-width="1.41844" stroke-linejoin="round"/>
</svg>
