<svg width="21" height="21" viewBox="0 0 21 21" fill="none" xmlns="http://www.w3.org/2000/svg">
<path d="M0.5 14.4901C0.5 14.4901 2.29534 13.74 5.5 13.74C10.5 13.74 14.5 16.74 20.5 16.74" stroke="#7D7D7D" stroke-linecap="round" stroke-linejoin="round"/>
<path d="M0.5 19.74H20.5" stroke="#7D7D7D" stroke-linecap="round" stroke-linejoin="round"/>
<path d="M11.094 1.9676C8.24838 2.78367 6.39871 5.59223 6.5043 8.61503C6.52623 9.24286 6.53719 9.55677 6.80546 9.6956C7.07373 9.83443 7.35218 9.63767 7.90908 9.24414L9.15065 8.36679C9.33711 8.23502 9.55848 8.17154 9.78153 8.18586L12.6977 8.3732L15.1357 6.65041C15.3222 6.51864 15.5435 6.45516 15.7666 6.46949L17.2879 6.56722C17.9407 6.60915 18.2671 6.63012 18.4291 6.37882C18.5912 6.12752 18.4594 5.85582 18.1959 5.31241C16.8856 2.60988 13.9553 1.14706 11.094 1.9676Z" stroke="#7D7D7D" stroke-linecap="round" stroke-linejoin="round"/>
<path d="M13 8.23999L15 15.74M10.7857 1.73999L10.5 0.73999" stroke="#7D7D7D" stroke-linecap="round" stroke-linejoin="round"/>
</svg>
