<svg width="19" height="19" viewBox="0 0 19 19" fill="none" xmlns="http://www.w3.org/2000/svg">
<path d="M17 13.865H2" stroke="#141B34" stroke-width="1.125" stroke-linecap="round" stroke-linejoin="round"/>
<path d="M17 16.49V12.74C17 11.3258 17 10.6187 16.5607 10.1793C16.1213 9.73999 15.4142 9.73999 14 9.73999H5C3.58579 9.73999 2.87868 9.73999 2.43934 10.1793C2 10.6187 2 11.3258 2 12.74V16.49" stroke="#141B34" stroke-width="1.125" stroke-linecap="round" stroke-linejoin="round"/>
<path d="M12.5 9.73999V8.70335C12.5 8.32271 12.4313 8.1954 12.0797 8.04537C11.3473 7.73291 10.4584 7.48999 9.5 7.48999C8.54162 7.48999 7.65266 7.73291 6.9203 8.04537C6.56865 8.1954 6.5 8.32271 6.5 8.70335L6.5 9.73999" stroke="#141B34" stroke-width="1.125" stroke-linecap="round"/>
<path d="M15.5 9.73999V6.26042C15.5 5.74168 15.5 5.48232 15.3719 5.23738C15.2438 4.99245 15.0613 4.86567 14.6963 4.61211C13.2246 3.58982 11.4329 2.98999 9.5 2.98999C7.56711 2.98999 5.77543 3.58982 4.30372 4.61211C3.93869 4.86567 3.75618 4.99245 3.62809 5.23738C3.5 5.48232 3.5 5.74168 3.5 6.26042V9.73999" stroke="#141B34" stroke-width="1.125" stroke-linecap="round"/>
</svg>
