<svg width="41" height="44" viewBox="0 0 41 44" fill="none" xmlns="http://www.w3.org/2000/svg">
<path d="M7.16663 16.5455C7.16663 11.4029 7.16663 8.83158 8.63109 7.23398C10.0956 5.63638 12.4526 5.63638 17.1666 5.63638H23.8333C28.5473 5.63638 30.9044 5.63638 32.3688 7.23398C33.8333 8.83158 33.8333 11.4029 33.8333 16.5455V28.9593C33.8333 33.838 33.8333 36.2774 32.4261 37.0235C31.019 37.7696 29.2607 36.2625 25.7442 33.2483L24.6188 32.2837C22.6415 30.5889 21.6528 29.7414 20.5 29.7414C19.3471 29.7414 18.3584 30.5889 16.3811 32.2837L15.2557 33.2483C11.7392 36.2625 9.98094 37.7696 8.57378 37.0235C7.16663 36.2774 7.16663 33.838 7.16663 28.9593V16.5455Z" stroke="#007DD0" stroke-width="2"/>
</svg>
