<svg width="20" height="20" viewBox="0 0 20 20" fill="none" xmlns="http://www.w3.org/2000/svg">
<path d="M13.9583 16.4691V17.6566" stroke="#7D7D7D" stroke-linecap="round" stroke-linejoin="round"/>
<path d="M6.04166 16.4691V17.6566" stroke="#7D7D7D" stroke-linecap="round" stroke-linejoin="round"/>
<path d="M3.66666 5.609C3.66666 5.10285 3.66666 4.84977 3.8043 4.54159C3.94194 4.23342 4.08171 4.10817 4.36124 3.85766C5.2772 3.03681 7.11855 1.82336 9.99999 1.82336C12.8814 1.82336 14.7228 3.03681 15.6387 3.85766C15.9183 4.10817 16.058 4.23342 16.1957 4.54159C16.3333 4.84977 16.3333 5.10285 16.3333 5.609V11.3234C16.3333 13.5625 16.3333 14.6821 15.6377 15.3777C14.9421 16.0734 13.8225 16.0734 11.5833 16.0734H8.41666C6.17748 16.0734 5.0579 16.0734 4.36228 15.3777C3.66666 14.6821 3.66666 13.5625 3.66666 11.3234V5.609Z" stroke="#7D7D7D" stroke-linejoin="round"/>
<path d="M3.66666 11.3234C3.66666 11.3234 6.62221 12.115 9.99999 12.115C13.3778 12.115 16.3333 11.3234 16.3333 11.3234" stroke="#7D7D7D" stroke-linecap="round" stroke-linejoin="round"/>
<path d="M4.0625 14.0941H5.25" stroke="#7D7D7D" stroke-width="1.5" stroke-linecap="round" stroke-linejoin="round"/>
<path d="M14.75 14.0941H15.9375" stroke="#7D7D7D" stroke-width="1.5" stroke-linecap="round" stroke-linejoin="round"/>
<path d="M9.20834 14.0941L10.7917 14.0941" stroke="#7D7D7D" stroke-width="1.5" stroke-linecap="round" stroke-linejoin="round"/>
<path d="M3.66666 4.98999L16.3333 4.98999" stroke="#7D7D7D" stroke-linejoin="round"/>
<path d="M2.08334 7.36499L2.08334 8.15666" stroke="#7D7D7D" stroke-linecap="round" stroke-linejoin="round"/>
<path d="M17.9167 7.36499L17.9167 8.15666" stroke="#7D7D7D" stroke-linecap="round" stroke-linejoin="round"/>
</svg>
