<svg width="36" height="36" viewBox="0 0 36 36" fill="none" xmlns="http://www.w3.org/2000/svg">
<rect x="0.691614" y="0.613673" width="34.7727" height="34.7727" rx="6.34579" stroke="#B8CDF9" stroke-width="0.551808"/>
<g clip-path="url(#clip0_1_325)">
<path d="M23.3125 21.868L18.9821 17.5376L13.9228 12.4783H13.5274L13.4467 12.6834C13.2336 13.2249 13.1426 13.7787 13.1834 14.2849C13.23 14.8619 13.4492 15.3615 13.8174 15.7297L17.767 19.6792L18.2879 19.1583L21.9393 23.2412C22.3025 23.6044 22.9277 23.626 23.3125 23.2412C23.6911 22.8626 23.6911 22.2466 23.3125 21.868Z" fill="#8B939F"/>
<path d="M15.9367 18.7645L12.8435 21.8577C12.4649 22.2363 12.4649 22.8524 12.8435 23.231C13.2031 23.5906 13.8253 23.6224 14.2167 23.231L17.31 20.1377L15.9367 18.7645Z" fill="#8B939F"/>
<path d="M23.1307 14.317L21.376 16.0717L20.9182 15.6139L22.6729 13.8592L22.2151 13.4015L20.4605 15.1562L20.0027 14.6984L21.7574 12.9437L21.2997 12.486L19.011 14.7747C18.731 15.0547 18.5638 15.4265 18.5402 15.8216C18.5342 15.9217 18.5115 16.0202 18.4739 16.1138L19.9606 17.6006C20.0543 17.5629 20.1528 17.5402 20.2528 17.5343C20.6479 17.5107 21.0197 17.3435 21.2997 17.0635L23.5884 14.7748L23.1307 14.317Z" fill="#8B939F"/>
</g>
<defs>
<clipPath id="clip0_1_325">
<rect width="11.0435" height="11.0435" fill="white" transform="translate(12.5562 12.4783)"/>
</clipPath>
</defs>
</svg>
