<svg width="19" height="19" viewBox="0 0 19 19" fill="none" xmlns="http://www.w3.org/2000/svg">
<path d="M4.25 17.24V6.73999C4.25 4.61867 4.25 3.55801 4.90901 2.899C5.56802 2.23999 6.62868 2.23999 8.75 2.23999H10.25C12.3713 2.23999 13.432 2.23999 14.091 2.899C14.75 3.55801 14.75 4.61867 14.75 6.73999V17.24H4.25Z" stroke="#626262" stroke-width="1.125" stroke-linecap="round" stroke-linejoin="round"/>
<path d="M6.5 8.98999V5.98999C6.5 4.74899 6.759 4.48999 8 4.48999H11C12.241 4.48999 12.5 4.74899 12.5 5.98999V8.98999C12.5 10.231 12.241 10.49 11 10.49H8C6.759 10.49 6.5 10.231 6.5 8.98999Z" stroke="#626262" stroke-width="1.125" stroke-linecap="round" stroke-linejoin="round"/>
<path d="M2.75 17.24H16.25" stroke="#626262" stroke-width="1.125" stroke-linecap="round" stroke-linejoin="round"/>
<path d="M9.5 4.48999V10.49M12.5 7.48999L6.5 7.48999" stroke="#626262" stroke-width="1.125" stroke-linecap="round" stroke-linejoin="round"/>
<path d="M6.506 13.49L6.49927 13.49" stroke="#626262" stroke-width="1.5" stroke-linecap="round" stroke-linejoin="round"/>
</svg>
