<svg width="17" height="16" viewBox="0 0 17 16" fill="none" xmlns="http://www.w3.org/2000/svg">
<path d="M1 3.19607C3.625 5.76984 7.43162 4.6668 8.29933 3.19607C8.42695 2.97975 8.5 2.7286 8.5 2.46071C8.5 1.64846 7.82843 0.98999 7 0.98999C6.17157 0.98999 5.5 1.64846 5.5 2.46071" stroke="#626262" stroke-width="1.125" stroke-linecap="round"/>
<path d="M12.25 5.43609C12.25 4.22322 13.0895 3.23999 14.125 3.23999C15.1605 3.23999 16 4.22322 16 5.43609C16 5.97389 15.835 6.46653 15.561 6.84833C14.0097 9.38363 6.4573 8.42728 2.5 7.6322" stroke="#626262" stroke-width="1.125" stroke-linecap="round"/>
<path d="M9.31403 13.6555C9.46847 14.1417 9.88518 14.49 10.375 14.49C10.9963 14.49 11.5 13.9296 11.5 13.2382C11.5 13.0032 11.4418 12.7833 11.3405 12.5953C10.3749 10.7343 5.49997 9.48292 1 12.821" stroke="#626262" stroke-width="1.125" stroke-linecap="round"/>
<path d="M13.75 10.365H15.25" stroke="#626262" stroke-width="1.125" stroke-linecap="round" stroke-linejoin="round"/>
</svg>
