<svg width="19" height="19" viewBox="0 0 19 19" fill="none" xmlns="http://www.w3.org/2000/svg">
<path d="M3.25 15.74H2.875V16.115H3.25V15.74ZM7.26517 12.2552C7.41161 12.1087 7.41161 11.8713 7.26517 11.7248C7.11872 11.5784 6.88128 11.5784 6.73483 11.7248L7.26517 12.2552ZM3.25 11.24H2.875V15.74H3.25H3.625V11.24H3.25ZM3.25 15.74V16.115H7.75V15.74V15.365H3.25V15.74ZM3.25 15.74L3.51516 16.0052L7.26517 12.2552L7 11.99L6.73483 11.7248L2.98484 15.4748L3.25 15.74Z" fill="#626262"/>
<path d="M15.25 3.73999H15.625V3.36499H15.25V3.73999ZM11.2348 7.22483C11.0884 7.37127 11.0884 7.60871 11.2348 7.75516C11.3813 7.9016 11.6187 7.9016 11.7652 7.75516L11.2348 7.22483ZM15.25 8.23999H15.625V3.73999H15.25H14.875V8.23999H15.25ZM15.25 3.73999V3.36499H10.75V3.73999V4.11499H15.25V3.73999ZM15.25 3.73999L14.9848 3.47483L11.2348 7.22483L11.5 7.48999L11.7652 7.75516L15.5152 4.00516L15.25 3.73999Z" fill="#626262"/>
</svg>
