<svg width="18" height="17" viewBox="0 0 18 17" fill="none" xmlns="http://www.w3.org/2000/svg">
<path fill-rule="evenodd" clip-rule="evenodd" d="M8.82809 0.0966797C4.09378 0.0966797 0.284973 3.8873 0.284973 8.599C0.284973 12.3542 2.74112 15.5426 6.12277 16.6762C6.54993 16.7471 6.69231 16.4991 6.69231 16.2511C6.69231 16.0385 6.69231 15.5071 6.69231 14.7986C4.30736 15.33 3.80901 13.665 3.80901 13.665C3.41745 12.673 2.84791 12.425 2.84791 12.425C2.06479 11.8936 2.9191 11.8936 2.9191 11.8936C3.77341 11.9645 4.23617 12.7793 4.23617 12.7793C4.98369 14.0901 6.22956 13.7004 6.72791 13.4878C6.7991 12.921 7.01268 12.5667 7.26185 12.3542C5.37525 12.1416 3.38185 11.3977 3.38185 8.13845C3.38185 7.21737 3.70222 6.43799 4.27176 5.87117C4.20057 5.65861 3.8802 4.80838 4.34295 3.60389C4.34295 3.60389 5.05488 3.39133 6.69231 4.48954C7.36864 4.31241 8.11616 4.20613 8.82809 4.20613C9.54002 4.20613 10.2875 4.31241 10.9639 4.48954C12.6013 3.39133 13.3132 3.60389 13.3132 3.60389C13.776 4.77295 13.4912 5.62319 13.3844 5.87117C13.9184 6.47342 14.2743 7.21737 14.2743 8.13845C14.2743 11.3977 12.2809 12.1062 10.3587 12.3188C10.6791 12.5667 10.9283 13.0981 10.9283 13.8775C10.9283 15.0112 10.9283 15.9322 10.9283 16.2157C10.9283 16.4282 11.0707 16.7116 11.5334 16.6408C14.9151 15.5426 17.3712 12.3542 17.3712 8.599C17.3712 3.8873 13.5624 0.0966797 8.82809 0.0966797Z" fill="#F0F0F0"/>
</svg>
