<svg width="37" height="36" viewBox="0 0 37 36" fill="none" xmlns="http://www.w3.org/2000/svg">
<rect x="0.975916" y="0.275904" width="35.4482" height="35.4482" rx="6.34579" stroke="#B8CDF9" stroke-width="0.551808"/>
<g clip-path="url(#clip0_1_338)">
<path d="M16.1932 16.7784H21.2064V19.2493H16.1932V16.7784Z" fill="#8B939F"/>
<path d="M24.9357 16.1065H24.5879V19.7502H24.9357C25.3376 19.7497 25.6634 19.424 25.6638 19.0219V16.8345C25.6633 16.4326 25.3375 16.1069 24.9357 16.1065Z" fill="#8B939F"/>
<path d="M23.2237 14.5659H21.8425V21.4621H23.2237C23.6257 21.4616 23.9515 21.1359 23.9519 20.734V15.294C23.9515 14.892 23.6257 14.5664 23.2237 14.5659Z" fill="#8B939F"/>
<path d="M13.4482 15.294V20.734C13.4485 21.1359 13.7743 21.4618 14.1763 21.4621H15.5575V14.5659H14.1763C13.7743 14.5664 13.4485 14.892 13.4482 15.294Z" fill="#8B939F"/>
<path d="M11.7361 16.8346V19.0219C11.7365 19.424 12.0623 19.7497 12.4642 19.7502H12.812V16.1065H12.4642C12.0623 16.1069 11.7366 16.4327 11.7361 16.8346Z" fill="#8B939F"/>
</g>
<defs>
<clipPath id="clip0_1_338">
<rect width="13.9277" height="13.9277" fill="white" transform="translate(11.7362 11.0361)"/>
</clipPath>
</defs>
</svg>
