<svg width="37" height="36" viewBox="0 0 37 36" fill="none" xmlns="http://www.w3.org/2000/svg">
<rect x="0.798717" y="0.350047" width="35.2999" height="35.2999" rx="6.87048" stroke="#EDEDF2" stroke-width="0.597433"/>
<path opacity="0.4" d="M17.4837 13.41L14.0187 16.185C13.6287 16.495 13.3787 17.15 13.4637 17.64L14.1287 21.62C14.2487 22.33 14.9287 22.905 15.6487 22.905H21.2487C21.9637 22.905 22.6487 22.325 22.7687 21.62L23.4337 17.64C23.5137 17.15 23.2637 16.495 22.8787 16.185L19.4137 13.415C18.8787 12.985 18.0137 12.985 17.4837 13.41Z" fill="#292D32"/>
<path d="M18.4487 19.75C19.139 19.75 19.6987 19.1904 19.6987 18.5C19.6987 17.8096 19.139 17.25 18.4487 17.25C17.7583 17.25 17.1987 17.8096 17.1987 18.5C17.1987 19.1904 17.7583 19.75 18.4487 19.75Z" fill="#292D32"/>
</svg>
