<svg width="37" height="36" viewBox="0 0 37 36" fill="none" xmlns="http://www.w3.org/2000/svg">
<rect x="0.798717" y="0.298717" width="35.4026" height="35.4026" rx="6.87048" stroke="#EDEDF2" stroke-width="0.597433"/>
<path d="M23.921 23.0428C23.921 23.2496 23.7495 23.421 23.5428 23.421H13.4572C13.2505 23.421 13.079 23.2496 13.079 23.0428C13.079 22.831 13.2505 22.6646 13.4572 22.6646H23.5428C23.7495 22.6646 23.921 22.831 23.921 23.0428Z" fill="#292D32"/>
<path opacity="0.4" d="M23.0385 16.9814V22.6646H13.9363L13.9615 16.9763C13.9615 16.6687 14.1027 16.3762 14.3498 16.1846L17.8797 13.4413C18.2428 13.1539 18.7572 13.1539 19.1203 13.4413L22.6502 16.1846C22.8973 16.3762 23.0385 16.6687 23.0385 16.9814Z" fill="#292D32"/>
<path d="M19.2564 16.109H17.7436C17.5368 16.109 17.3654 15.9375 17.3654 15.7307C17.3654 15.524 17.5368 15.3525 17.7436 15.3525H19.2564C19.4632 15.3525 19.6346 15.524 19.6346 15.7307C19.6346 15.9375 19.4632 16.109 19.2564 16.109Z" fill="#292D32"/>
<path d="M20.265 17.4957H16.735C16.3165 17.4957 15.9786 17.8336 15.9786 18.2521V23.0428H21.0214V18.2521C21.0214 17.8336 20.6835 17.4957 20.265 17.4957ZM17.8697 20.8996C17.8697 21.1064 17.6982 21.2778 17.4914 21.2778C17.2847 21.2778 17.1132 21.1064 17.1132 20.8996V20.1432C17.1132 19.9364 17.2847 19.765 17.4914 19.765C17.6982 19.765 17.8697 19.9364 17.8697 20.1432V20.8996Z" fill="#292D32"/>
</svg>
