<svg width="23" height="23" viewBox="0 0 23 23" fill="none" xmlns="http://www.w3.org/2000/svg">
<rect x="0.31781" y="0.544067" width="22.176" height="22.176" rx="11.088" fill="#007DD0"/>
<path d="M5.86182 12.2337C5.86182 11.1583 5.86182 10.6207 6.07919 10.148C6.29656 9.67542 6.70479 9.32551 7.52126 8.62568L8.31326 7.94683C9.789 6.6819 10.5269 6.04944 11.4058 6.04944C12.2848 6.04944 13.0226 6.6819 14.4984 7.94683L15.2904 8.62569C16.1068 9.32551 16.5151 9.67542 16.7324 10.148C16.9498 10.6207 16.9498 11.1583 16.9498 12.2337V15.5921C16.9498 17.0855 16.9498 17.8322 16.4859 18.2961C16.0219 18.7601 15.2752 18.7601 13.7818 18.7601H9.02982C7.53641 18.7601 6.7897 18.7601 6.32576 18.2961C5.86182 17.8322 5.86182 17.0855 5.86182 15.5921V12.2337Z" stroke="white" stroke-width="0.792"/>
<path d="M13.3858 18.7601V14.8001C13.3858 14.3626 13.0312 14.0081 12.5938 14.0081H10.2178C9.78037 14.0081 9.42578 14.3626 9.42578 14.8001V18.7601" stroke="white" stroke-width="0.792" stroke-linecap="round" stroke-linejoin="round"/>
</svg>
