<svg width="19" height="18" viewBox="0 0 19 18" fill="none" xmlns="http://www.w3.org/2000/svg">
<path d="M9.73499 1.6983C12.1196 1.6983 12.402 1.70719 13.344 1.74993C13.9104 1.75683 14.4714 1.86034 15.0026 2.05595C15.3879 2.20381 15.7378 2.43032 16.0297 2.72089C16.3217 3.01147 16.5493 3.35966 16.6979 3.74307C16.8944 4.27177 16.9984 4.8301 17.0053 5.39378C17.0479 6.3313 17.0572 6.61235 17.0572 8.98557C17.0572 11.3588 17.0483 11.6398 17.0053 12.5774C16.9984 13.141 16.8944 13.6994 16.6979 14.2281C16.5493 14.6115 16.3217 14.9597 16.0297 15.2502C15.7378 15.5408 15.3879 15.7673 15.0026 15.9152C14.4714 16.1108 13.9104 16.2143 13.344 16.2212C12.4024 16.2635 12.12 16.2728 9.73499 16.2728C7.34995 16.2728 7.06756 16.264 6.12596 16.2212C5.55957 16.2143 4.99856 16.1108 4.46732 15.9152C4.08208 15.7673 3.73221 15.5408 3.44025 15.2502C3.14828 14.9597 2.92068 14.6115 2.77211 14.2281C2.57556 13.6994 2.47156 13.141 2.46463 12.5774C2.4221 11.6398 2.41274 11.3588 2.41274 8.98557C2.41274 6.61235 2.42167 6.3313 2.46463 5.39378C2.47156 4.8301 2.57556 4.27177 2.77211 3.74307C2.92068 3.35966 3.14828 3.01147 3.44025 2.72089C3.73221 2.43032 4.08208 2.20381 4.46732 2.05595C4.99856 1.86034 5.55957 1.75683 6.12596 1.74993C7.06798 1.70761 7.35038 1.6983 9.73499 1.6983ZM9.73499 0.0966797C7.31082 0.0966797 7.00546 0.106838 6.05281 0.15001C5.31155 0.164684 4.57815 0.304365 3.88382 0.563113C3.2882 0.786453 2.74872 1.13645 2.30302 1.58867C1.84821 2.03241 1.49624 2.56962 1.27168 3.16278C1.0117 3.85379 0.871344 4.58368 0.8566 5.3214C0.814071 6.26866 0.803864 6.57256 0.803864 8.98515C0.803864 11.3977 0.81407 11.7016 0.85745 12.6497C0.872194 13.3875 1.01255 14.1173 1.27253 14.8084C1.49684 15.4014 1.84852 15.9386 2.30302 16.3825C2.74896 16.8348 3.28875 17.1848 3.88468 17.408C4.57901 17.6668 5.3124 17.8065 6.05366 17.8211C7.00631 17.8635 7.3104 17.8745 9.73584 17.8745C12.1613 17.8745 12.4654 17.8643 13.418 17.8211C14.1593 17.8065 14.8927 17.6668 15.587 17.408C16.1801 17.1792 16.7187 16.8298 17.1683 16.382C17.618 15.9342 17.9688 15.3979 18.1983 14.8075C18.4583 14.1165 18.5986 13.3866 18.6134 12.6489C18.6559 11.7016 18.6661 11.3977 18.6661 8.98515C18.6661 6.57256 18.6559 6.26866 18.6125 5.32056C18.5978 4.58284 18.4574 3.85294 18.1974 3.16193C17.9731 2.56885 17.6215 2.03164 17.167 1.58783C16.721 1.1355 16.1812 0.785497 15.5853 0.562266C14.891 0.303519 14.1576 0.163838 13.4163 0.149164C12.4645 0.106838 12.1591 0.0966797 9.73499 0.0966797Z" fill="#F0F0F0"/>
<path d="M9.73339 4.4209C8.8263 4.4209 7.93958 4.6886 7.18536 5.19015C6.43114 5.69169 5.8433 6.40456 5.49617 7.2386C5.14904 8.07264 5.05821 8.9904 5.23518 9.87581C5.41214 10.7612 5.84895 11.5745 6.49036 12.2129C7.13177 12.8512 7.94898 13.286 8.83864 13.4621C9.72831 13.6382 10.6505 13.5478 11.4885 13.2023C12.3266 12.8569 13.0428 12.2718 13.5468 11.5212C14.0508 10.7706 14.3197 9.8881 14.3197 8.98534C14.3197 7.77477 13.8365 6.61379 12.9764 5.75779C12.1163 4.90179 10.9498 4.4209 9.73339 4.4209ZM9.73339 11.9482C9.14459 11.9482 8.56901 11.7744 8.07944 11.4488C7.58987 11.1233 7.20829 10.6605 6.98297 10.1192C6.75764 9.57778 6.69869 8.98205 6.81356 8.40732C6.92843 7.83259 7.21196 7.30466 7.62831 6.89031C8.04466 6.47595 8.57511 6.19377 9.1526 6.07945C9.73009 5.96512 10.3287 6.0238 10.8727 6.24805C11.4166 6.4723 11.8816 6.85205 12.2087 7.33928C12.5358 7.82651 12.7104 8.39935 12.7104 8.98534C12.7104 9.77113 12.3968 10.5247 11.8385 11.0804C11.2802 11.636 10.523 11.9482 9.73339 11.9482Z" fill="#F0F0F0"/>
<path d="M14.5022 5.30706C15.0941 5.30706 15.574 4.82952 15.574 4.24044C15.574 3.65137 15.0941 3.17383 14.5022 3.17383C13.9103 3.17383 13.4305 3.65137 13.4305 4.24044C13.4305 4.82952 13.9103 5.30706 14.5022 5.30706Z" fill="#F0F0F0"/>
</svg>
