<svg width="24" height="25" viewBox="0 0 24 25" fill="none" xmlns="http://www.w3.org/2000/svg">
<path d="M19.0545 17.8745C19.7694 18.3306 20.1458 18.8479 20.1458 19.3745C20.1458 19.9011 19.7694 20.4185 19.0545 20.8745C18.3396 21.3306 17.3112 21.7093 16.0729 21.9726C14.8346 22.2359 13.4299 22.3745 12 22.3745C10.5701 22.3745 9.16541 22.2359 7.92708 21.9726C6.68876 21.7093 5.66045 21.3306 4.9455 20.8745C4.23055 20.4185 3.85416 19.9011 3.85416 19.3745C3.85416 18.8479 4.23055 18.3306 4.9455 17.8745" stroke="white" stroke-linecap="round"/>
<path d="M19.1875 10.8745C19.1875 15.8565 14.003 19.2286 12.4405 20.1317C12.1652 20.2908 11.8348 20.2908 11.5595 20.1317C9.99702 19.2286 4.8125 15.8565 4.8125 10.8745C4.8125 6.37451 8.29509 3.37451 12 3.37451C15.8333 3.37451 19.1875 6.37451 19.1875 10.8745Z" stroke="white"/>
<path d="M11.9997 7.37451C13.8208 7.37451 15.3337 8.92125 15.3337 10.8745C15.3337 12.8278 13.8208 14.3745 11.9997 14.3745C10.1787 14.3743 8.66667 12.8277 8.66667 10.8745C8.66667 8.92136 10.1787 7.3747 11.9997 7.37451Z" stroke="white"/>
</svg>
