<svg width="90" height="30" viewBox="0 0 90 30" fill="none" xmlns="http://www.w3.org/2000/svg">
<path d="M46.4735 7.56116C46.1152 6.66057 45.6084 5.89327 44.9536 5.26C44.2981 4.62672 43.4976 4.1339 42.553 3.78295C41.6077 3.43201 40.5478 3.25582 39.3745 3.25582H32.1266V17.8647H39.3745C40.5478 17.8647 41.6077 17.6932 42.553 17.3501C43.4976 17.0063 44.2981 16.5181 44.9536 15.8842C45.6084 15.2509 46.1155 14.4843 46.4735 13.583C46.8318 12.6831 47.0116 11.6757 47.0116 10.5603C47.0116 9.4449 46.8318 8.46175 46.4735 7.56116ZM43.5815 12.6438C43.3524 13.2249 43.0326 13.7091 42.6215 14.098C42.2097 14.4872 41.7215 14.7734 41.1577 14.9564C40.5939 15.1397 39.9765 15.2316 39.306 15.2316H35.1899V5.88863H39.306C39.9765 5.88863 40.5939 5.9844 41.1577 6.17489C41.7215 6.36608 42.2097 6.65199 42.6215 7.03331C43.0326 7.41535 43.3527 7.90031 43.5815 8.48748C43.8106 9.07537 43.9241 9.76654 43.9241 10.5596C43.9241 11.3526 43.8102 12.0638 43.5815 12.6431V12.6438Z" fill="#00006A"/>
<path d="M56.7285 3.25582H52.8413L47.3767 17.8647H50.5777L51.9038 14.2699H57.6892L58.9921 17.8647H62.2167L56.7285 3.25582ZM52.7042 11.9805L54.7847 6.30176L56.8652 11.9805H52.7039H52.7042Z" fill="#00006A"/>
<path d="M71.4083 3.25582L67.5896 9.85053L63.7258 3.25582H60.2497L65.9434 12.8507V17.8647H68.9842V12.8965L74.7924 3.25582H71.4083Z" fill="#00006A"/>
<path d="M87.4138 5.88934V3.25582H76.4383V17.8647H79.5023V11.6371H86.4075V9.18687H79.5023V5.88898H87.4135L87.4138 5.88934Z" fill="#00006A"/>
<path d="M37.2055 24.5527C37.1487 24.3851 37.062 24.2407 36.946 24.1185C36.8301 23.9959 36.6837 23.8977 36.5085 23.823C36.3326 23.749 36.1285 23.7054 35.8965 23.6936C36.1224 23.6818 36.3083 23.631 36.455 23.5413C36.6006 23.4516 36.7144 23.3487 36.7944 23.2326C36.8747 23.1164 36.9282 22.9938 36.955 22.8659C36.9821 22.7372 36.9953 22.6257 36.9953 22.53C36.9953 22.2319 36.936 21.9817 36.8169 21.7791C36.6977 21.5765 36.5414 21.4149 36.3472 21.2956C36.1542 21.1762 35.9361 21.0912 35.6956 21.0404C35.4544 20.9897 35.2081 20.9639 34.9583 20.9639H32.1263V26.6731H35.1903C35.4526 26.6731 35.7106 26.6488 35.9636 26.6012C36.2166 26.5537 36.4418 26.4719 36.6381 26.3557C36.8351 26.2388 36.9924 26.0798 37.1116 25.8768C37.2308 25.6742 37.2908 25.4144 37.2908 25.0977C37.2908 24.9012 37.2619 24.7196 37.2058 24.5527H37.2055ZM33.3228 21.9935H34.8959C35.0268 21.9935 35.1489 22.0021 35.262 22.02C35.3748 22.0379 35.474 22.0707 35.5571 22.119C35.6403 22.1665 35.7059 22.2337 35.7534 22.3202C35.8009 22.4067 35.8251 22.5182 35.8251 22.6554C35.8251 22.7926 35.8041 22.897 35.7627 22.9867C35.7206 23.0757 35.6624 23.1472 35.5882 23.2011C35.5136 23.2551 35.423 23.2923 35.3155 23.3126C35.2081 23.3337 35.0922 23.3444 34.9665 23.3444H33.3228V21.9932V21.9935ZM36.0171 25.3311C35.954 25.4208 35.869 25.4894 35.7623 25.5369C35.6549 25.5845 35.5357 25.6141 35.4048 25.6259C35.2731 25.6384 35.1393 25.6438 35.0022 25.6438H33.3225V24.2393H34.9662C35.1032 24.2393 35.2402 24.2479 35.3773 24.2658C35.5143 24.2836 35.6381 24.3179 35.7488 24.3687C35.8587 24.4194 35.9465 24.4913 36.0118 24.5838C36.0771 24.6757 36.1099 24.8029 36.1099 24.9637C36.1099 25.1245 36.0789 25.2414 36.0164 25.3311H36.0171Z" fill="#00006A"/>
<path d="M46.2693 22.6147C46.1027 22.2544 45.8775 21.9439 45.5949 21.6844C45.3122 21.4246 44.9814 21.2252 44.6028 21.0847C44.2245 20.945 43.8209 20.8749 43.3927 20.8749C42.9645 20.8749 42.5587 20.9461 42.1772 21.0894C41.7958 21.233 41.4624 21.4325 41.1766 21.6891C40.8908 21.9457 40.6642 22.2544 40.4975 22.6147C40.3308 22.9756 40.2477 23.3773 40.2477 23.8187C40.2477 24.26 40.3308 24.661 40.4975 25.022C40.6642 25.3829 40.8908 25.6917 41.1766 25.9483C41.4624 26.2049 41.7958 26.4043 42.1772 26.5473C42.5587 26.6909 42.9638 26.7624 43.3927 26.7624C43.8216 26.7624 44.2242 26.6924 44.6028 26.5519C44.9811 26.4115 45.3137 26.212 45.5995 25.9522C45.8854 25.6935 46.1102 25.3829 46.274 25.022C46.4374 24.661 46.5202 24.26 46.5202 23.8187C46.5202 23.3773 46.436 22.9756 46.2693 22.6147ZM45.1659 24.5792C45.0678 24.8115 44.934 25.0127 44.7641 25.1828C44.5942 25.3529 44.3919 25.4862 44.1567 25.5813C43.9208 25.677 43.6661 25.7246 43.3927 25.7246C43.1193 25.7246 42.8624 25.677 42.624 25.5813C42.3856 25.4862 42.1801 25.3529 42.0074 25.1828C41.8346 25.0127 41.699 24.8115 41.6009 24.5792C41.5028 24.3469 41.4539 24.0935 41.4539 23.819C41.4539 23.5446 41.5028 23.2912 41.6009 23.0578C41.699 22.8255 41.8346 22.6225 42.0074 22.4496C42.1801 22.2766 42.3856 22.1422 42.624 22.0471C42.8624 21.9521 43.1186 21.9035 43.3927 21.9035C43.6668 21.9035 43.9205 21.9517 44.1567 22.0471C44.3919 22.1422 44.596 22.2766 44.7687 22.4496C44.9408 22.6225 45.0756 22.8269 45.1706 23.0625C45.2655 23.298 45.3137 23.5499 45.3137 23.819C45.3137 24.0881 45.2637 24.3469 45.1656 24.5792H45.1659Z" fill="#00006A"/>
<path d="M55.5084 22.6147C55.3411 22.2544 55.1159 21.9439 54.8333 21.6844C54.5506 21.4246 54.2198 21.2252 53.8419 21.0847C53.4636 20.945 53.06 20.8749 52.6311 20.8749C52.2021 20.8749 51.7971 20.9461 51.4156 21.0894C51.0349 21.233 50.7008 21.4325 50.415 21.6891C50.1291 21.9457 49.9025 22.2544 49.7359 22.6147C49.5692 22.9756 49.4861 23.3773 49.4861 23.8187C49.4861 24.26 49.5692 24.661 49.7359 25.022C49.9025 25.3829 50.1291 25.6917 50.415 25.9483C50.7008 26.2049 51.0349 26.4043 51.4156 26.5473C51.7971 26.6909 52.2021 26.7624 52.6311 26.7624C53.06 26.7624 53.4636 26.6924 53.8419 26.5519C54.2195 26.4115 54.5521 26.212 54.8379 25.9522C55.1238 25.6935 55.3486 25.3829 55.5124 25.022C55.6765 24.661 55.7586 24.26 55.7586 23.8187C55.7586 23.3773 55.6755 22.9756 55.5088 22.6147H55.5084ZM54.4043 24.5792C54.3062 24.8115 54.1724 25.0127 54.0025 25.1828C53.8326 25.3529 53.6303 25.4862 53.3951 25.5813C53.16 25.677 52.9055 25.7246 52.6311 25.7246C52.3567 25.7246 52.1008 25.677 51.8624 25.5813C51.624 25.4862 51.4185 25.3529 51.2458 25.1828C51.073 25.0127 50.9374 24.8115 50.8393 24.5792C50.7412 24.3469 50.6923 24.0935 50.6923 23.819C50.6923 23.5446 50.7412 23.2912 50.8393 23.0578C50.9374 22.8255 51.073 22.6225 51.2458 22.4496C51.4185 22.2766 51.624 22.1422 51.8624 22.0471C52.1008 21.9521 52.357 21.9035 52.6311 21.9035C52.9052 21.9035 53.16 21.9517 53.3951 22.0471C53.6303 22.1422 53.8344 22.2766 54.0071 22.4496C54.1799 22.6225 54.314 22.8269 54.409 23.0625C54.5039 23.298 54.5524 23.5499 54.5524 23.819C54.5524 24.0881 54.5035 24.3469 54.4043 24.5792Z" fill="#00006A"/>
<path d="M61.9234 23.5231L64.5142 20.9639H62.9957L60.2975 23.6214V20.9732L59.0999 20.9639V26.6731H60.2975V25.1253L61.0747 24.3555L63.0136 26.6731H64.532L61.9234 23.5235V23.5231Z" fill="#00006A"/>
<path d="M67.6863 20.9639V26.6731H68.8832V20.9639H67.6863Z" fill="#00006A"/>
<path d="M76.6567 20.9639V24.7396L73.7615 20.9639H72.5995V26.6731H73.7971V22.9059L76.6923 26.6731H77.8532V20.9639H76.6563H76.6567Z" fill="#00006A"/>
<path d="M83.5448 23.4874V24.3372H86.3597L86.3326 24.7046C86.2733 24.8536 86.1823 24.9891 86.0599 25.1117C85.9375 25.2343 85.7919 25.3386 85.6224 25.4244C85.4525 25.5109 85.2634 25.5781 85.0546 25.6256C84.8459 25.6738 84.6232 25.6974 84.3848 25.6974C84.0751 25.6974 83.7978 25.6499 83.554 25.5548C83.3096 25.459 83.1008 25.3247 82.9281 25.1517C82.7554 24.9794 82.6212 24.7757 82.5263 24.5434C82.4314 24.3111 82.3807 24.0631 82.3746 23.8012C82.3746 23.5267 82.4189 23.2765 82.5084 23.0496C82.598 22.8227 82.7272 22.6279 82.8971 22.4631C83.0669 22.2995 83.2725 22.1715 83.5137 22.0786C83.755 21.9857 84.0276 21.9399 84.3313 21.9399C84.5579 21.9399 84.7734 21.9596 84.979 21.9985C85.1845 22.0368 85.3708 22.0983 85.5371 22.1819C85.7038 22.2655 85.8469 22.3713 85.9661 22.4992C86.0852 22.6279 86.177 22.7816 86.2426 22.9602L87.3507 22.8084C87.2968 22.4864 87.1887 22.2062 87.0245 21.9671C86.8611 21.7291 86.6509 21.5272 86.3946 21.3635C86.1384 21.1998 85.844 21.0772 85.51 20.9968C85.1767 20.9157 84.8163 20.876 84.4291 20.876C83.9409 20.876 83.4969 20.9518 83.0976 21.1037C82.699 21.2556 82.3593 21.4646 82.0791 21.7298C81.7997 21.9957 81.5824 22.3062 81.4275 22.6608C81.2726 23.0156 81.1916 23.3963 81.1863 23.8015C81.1916 24.2482 81.2726 24.6546 81.4275 25.018C81.5824 25.3822 81.8011 25.6942 82.0838 25.9529C82.3664 26.2128 82.7076 26.4122 83.1069 26.5526C83.5055 26.6931 83.9494 26.7631 84.4383 26.7631C84.9272 26.7631 85.3105 26.6766 85.6267 26.5033C85.9421 26.3303 86.1866 26.1095 86.3593 25.8411V26.6731H87.4135V23.4874H83.5441H83.5448Z" fill="#00006A"/>
<path d="M8.86975 20.033L12.8987 26.8993C12.9408 26.9711 12.8891 27.0619 12.8056 27.0619H3.41907C2.9498 27.0619 2.56939 26.6809 2.56939 26.211V16.343L8.54643 19.7149C8.68025 19.7903 8.79159 19.9 8.86939 20.0326L8.86975 20.033Z" fill="#FE055B"/>
<path d="M8.54643 10.304L2.56939 13.6759V3.80726C2.56939 3.3373 2.9498 2.95634 3.41907 2.95634H12.8056C12.8891 2.95634 12.9408 3.04711 12.8987 3.11895L8.86975 9.98634C8.79195 10.1189 8.68061 10.2286 8.54679 10.304H8.54643Z" fill="#531C92"/>
<path d="M26.2434 10.0599C26.834 11.5466 27.1302 13.1959 27.1302 15.01L18.7883 10.3044C18.6545 10.229 18.5431 10.1193 18.4653 9.98668L14.4364 3.11929C14.3943 3.04746 14.446 2.95669 14.5295 2.95669C16.4666 2.95669 18.2137 3.24724 19.7736 3.82583C21.3323 4.4055 22.6538 5.21818 23.7354 6.26351C24.816 7.30885 25.6525 8.57432 26.2438 10.0599H26.2434Z" fill="#FE055B"/>
<path d="M27.1302 15.0096C27.1302 16.8487 26.834 18.5105 26.2434 19.9972C25.6518 21.4828 24.8153 22.7494 23.7351 23.7937C22.6534 24.8401 21.3323 25.6452 19.7732 26.2124C18.2134 26.7785 16.4658 27.0615 14.5292 27.0615C14.4457 27.0615 14.3939 26.9707 14.436 26.8989L18.465 20.0326C18.5428 19.9 18.6541 19.7903 18.7879 19.7149L27.1299 15.0093L27.1302 15.0096Z" fill="#531C92"/>
<path d="M13.9272 8.837L15.2843 11.1492H12.0519L13.4076 8.837C13.5235 8.6383 13.8108 8.6383 13.9268 8.837H13.9272Z" fill="#0EB1FD"/>
<path d="M12.2442 18.8693C12.2435 18.8661 12.2428 18.8622 12.2417 18.8593C12.4262 18.8 12.6107 18.7407 12.7952 18.6824C13.4329 18.4787 14.0699 18.2754 14.7083 18.0735C14.7544 18.0588 14.769 18.0384 14.769 17.9891C14.7683 16.0943 14.7683 14.1991 14.7697 12.3043C14.7697 12.2503 14.754 12.2271 14.7037 12.2074C13.813 11.8676 12.9237 11.5252 12.0337 11.1836C12.0329 11.1836 12.0322 11.1828 12.0312 11.1828L11.2446 12.5241C11.2175 12.5702 11.1786 12.6084 11.1326 12.6342L7.38627 14.7466C7.18143 14.8621 7.18143 15.1576 7.38627 15.273L11.1326 17.3855C11.1786 17.4119 11.2175 17.4502 11.2446 17.4956L13.4072 21.1816C13.5232 21.3803 13.8105 21.3803 13.9264 21.1816L15.2836 18.8693H12.2435H12.2442ZM13.8668 14.7098C14.036 14.7084 14.1705 14.8417 14.1705 15.01C14.1712 15.1762 14.0388 15.3102 13.8747 15.3116C13.7055 15.3141 13.571 15.1798 13.5703 15.0114C13.5703 14.8445 13.7013 14.7112 13.8668 14.7098Z" fill="#0EB1FD"/>
<path d="M19.9477 15.273L16.2021 17.3855C16.1561 17.4119 16.1172 17.4502 16.0908 17.4956L15.3564 18.7464V11.2736L16.0908 12.5244C16.1172 12.5705 16.1561 12.6088 16.2028 12.6345L19.9474 14.747C20.1522 14.8624 20.1522 15.1579 19.9474 15.2734L19.9477 15.273Z" fill="#0EB1FD"/>
<path d="M11.978 11.1492H12.0519L12.0315 11.1828C12.013 11.175 11.994 11.1657 11.9776 11.1492H11.978Z" fill="white"/>
<path d="M15.3567 11.1492V11.2733L15.2843 11.1492H15.3567Z" fill="white"/>
<path d="M15.2843 18.8693L15.3567 18.746V18.8693H15.2843Z" fill="white"/>
</svg>
