<svg width="25" height="24" viewBox="0 0 25 24" fill="none" xmlns="http://www.w3.org/2000/svg">
<path d="M22.4598 10.9707C22.5134 11.8009 22.5134 12.6607 22.4598 13.4909C22.1856 17.7332 18.8536 21.1125 14.6706 21.3905C13.2435 21.4854 11.7536 21.4852 10.3294 21.3905C9.83896 21.3579 9.3044 21.2409 8.84401 21.0513C8.33177 20.8403 8.0756 20.7348 7.94544 20.7508C7.81527 20.7668 7.6264 20.9061 7.24868 21.1846C6.58268 21.6757 5.74367 22.0285 4.49943 21.9982C3.87026 21.9829 3.55568 21.9752 3.41484 21.7351C3.27401 21.495 3.44941 21.1626 3.80021 20.4978C4.28674 19.5758 4.59501 18.5203 4.12791 17.6746C3.32343 16.4666 2.6401 15.036 2.54024 13.4909C2.48659 12.6607 2.48659 11.8009 2.54024 10.9707C2.81441 6.72838 6.14639 3.34913 10.3294 3.07107C11.5318 2.99114 11.7812 2.97856 13 3.03368" stroke="white" stroke-width="1.5" stroke-linecap="round" stroke-linejoin="round"/>
<path d="M22.5 5.5C22.5 7.433 20.933 9 19 9C17.067 9 15.5 7.433 15.5 5.5C15.5 3.567 17.067 2 19 2C20.933 2 22.5 3.567 22.5 5.5Z" stroke="white" stroke-width="1.5"/>
</svg>
