<svg width="25" height="25" viewBox="0 0 25 25" fill="none" xmlns="http://www.w3.org/2000/svg">
<path d="M18.2071 14.0762L20.8552 16.7244C21.2113 17.0805 21.2113 17.6578 20.8552 18.0139C18.93 19.9391 15.8821 20.1557 13.704 18.5221L12.1286 17.3406C10.385 16.0329 8.83622 14.4841 7.52857 12.7406L6.34701 11.1652C4.71341 8.98702 4.93001 5.93913 6.85523 4.01391C7.21133 3.65781 7.78867 3.65781 8.14477 4.01391L10.7929 6.66203C11.1834 7.05256 11.1834 7.68572 10.7929 8.07625L9.77175 9.0974C9.60946 9.25968 9.56923 9.5076 9.67187 9.71287C10.8585 12.0862 12.7829 14.0106 15.1563 15.1973C15.3615 15.2999 15.6095 15.2597 15.7717 15.0974L16.7929 14.0762C17.1834 13.6857 17.8166 13.6857 18.2071 14.0762Z" stroke="white"/>
</svg>
