<svg width="35" height="35" viewBox="0 0 35 35" fill="none" xmlns="http://www.w3.org/2000/svg">
<path d="M25.5652 17.9444C25.2348 19.296 23.4763 20.2668 19.9594 22.2082C16.1343 24.3198 14.2217 25.3756 12.6726 24.9688C12.1479 24.8311 11.6647 24.5888 11.2589 24.2602C10.0608 23.2898 10.0608 21.2753 10.0608 17.2464C10.0608 13.2174 10.0608 11.2029 11.2589 10.2326C11.6647 9.90395 12.1479 9.66171 12.6726 9.52395C14.2217 9.11719 16.1343 10.173 19.9594 12.2845C23.4763 14.226 25.2348 15.1967 25.5652 16.5484C25.6777 17.0082 25.6777 17.4845 25.5652 17.9444Z" stroke="white" stroke-width="1.41844" stroke-linejoin="round"/>
<path d="M11.4779 24.4315L22.8152 13.9459M11.4779 10.2344L22.8152 20.7199" stroke="white" stroke-width="1.41844" stroke-linejoin="round"/>
<path d="M3.68347 17.3325C3.68347 10.9745 3.68347 7.79554 5.65509 5.82038C7.62671 3.84521 10.8 3.84521 17.1465 3.84521C23.4931 3.84521 26.6663 3.84521 28.6379 5.82038C30.6096 7.79554 30.6096 10.9745 30.6096 17.3325C30.6096 23.6904 30.6096 26.8694 28.6379 28.8446C26.6663 30.8197 23.4931 30.8197 17.1465 30.8197C10.8 30.8197 7.62671 30.8197 5.65509 28.8446C3.68347 26.8694 3.68347 23.6904 3.68347 17.3325Z" stroke="white" stroke-width="1.41844" stroke-linejoin="round"/>
</svg>
