<svg width="17" height="17" viewBox="0 0 17 17" fill="none" xmlns="http://www.w3.org/2000/svg">
<path d="M1.375 7.98999C1.375 10.1113 1.375 11.172 2.03401 11.831C2.69302 12.49 3.75368 12.49 5.875 12.49H11.125C13.2463 12.49 14.307 12.49 14.966 11.831C15.625 11.172 15.625 10.1113 15.625 7.98999V5.73999C15.625 3.61867 15.625 2.55801 14.966 1.899C14.307 1.23999 13.2463 1.23999 11.125 1.23999H5.875C3.75368 1.23999 2.69302 1.23999 2.03401 1.899C1.375 2.55801 1.375 3.61867 1.375 5.73999V7.98999Z" stroke="#626262" stroke-width="1.125"/>
<path d="M7.9375 16.24C7.9375 16.5507 8.18934 16.8025 8.5 16.8025C8.81066 16.8025 9.0625 16.5507 9.0625 16.24L7.9375 16.24ZM8.5 12.49L7.9375 12.49L7.9375 16.24L8.5 16.24L9.0625 16.24L9.0625 12.49L8.5 12.49Z" fill="#626262"/>
<path d="M4.75 16.24L8.50005 13.99L12.25 16.24" stroke="#626262" stroke-width="1.125" stroke-linecap="round" stroke-linejoin="round"/>
</svg>
