<svg width="43" height="39" viewBox="0 0 43 39" fill="none" xmlns="http://www.w3.org/2000/svg">
<path d="M15.2992 7.49934C15.2992 8.28728 15.4596 9.06749 15.7712 9.79544C16.0828 10.5234 16.5396 11.1848 17.1154 11.742C17.6912 12.2991 18.3747 12.7411 19.127 13.0426C19.8793 13.3441 20.6857 13.4993 21.5 13.4993C22.3143 13.4993 23.1206 13.3441 23.8729 13.0426C24.6252 12.7411 25.3088 12.2991 25.8846 11.742C26.4604 11.1848 26.9171 10.5234 27.2287 9.79544C27.5404 9.06749 27.7007 8.28727 27.7007 7.49934C27.7007 6.71141 27.5404 5.93119 27.2287 5.20324C26.9171 4.47529 26.4604 3.81385 25.8846 3.2567C25.3088 2.69955 24.6252 2.25759 23.8729 1.95607C23.1206 1.65454 22.3143 1.49934 21.5 1.49934C20.6857 1.49934 19.8793 1.65454 19.127 1.95607C18.3747 2.2576 17.6912 2.69955 17.1154 3.25671C16.5396 3.81386 16.0828 4.47529 15.7712 5.20325C15.4596 5.9312 15.2992 6.71142 15.2992 7.49935L15.2992 7.49934Z" stroke="#007DD0" stroke-width="2"/>
<path d="M5.87005 23.3024C5.16485 23.6963 4.54675 24.2208 4.05103 24.8459C3.55532 25.471 3.19171 26.1845 2.98095 26.9456C2.77019 27.7067 2.71642 28.5005 2.82271 29.2817C2.929 30.0629 3.19326 30.8161 3.60041 31.4985C4.00756 32.1809 4.54962 32.779 5.19565 33.2586C5.84167 33.7383 6.57901 34.0901 7.36556 34.2941C8.15211 34.498 8.97247 34.55 9.7798 34.4472C10.5871 34.3443 11.3656 34.0886 12.0708 33.6947C12.776 33.3007 13.3941 32.7762 13.8898 32.1511C14.3856 31.526 14.7492 30.8125 14.9599 30.0514C15.1707 29.2903 15.2245 28.4965 15.1182 27.7153C15.0119 26.9342 14.7476 26.1809 14.3405 25.4985C13.9333 24.8161 13.3913 24.218 12.7452 23.7384C12.0992 23.2587 11.3619 22.9069 10.5753 22.7029C9.78876 22.499 8.9684 22.447 8.16107 22.5498C7.35374 22.6527 6.57525 22.9084 5.87005 23.3024L5.87005 23.3024Z" stroke="#007DD0" stroke-width="2"/>
<path d="M37.1299 23.3024C37.8352 23.6963 38.4533 24.2208 38.949 24.8459C39.4447 25.471 39.8083 26.1845 40.0191 26.9456C40.2298 27.7067 40.2836 28.5005 40.1773 29.2817C40.071 30.0629 39.8067 30.8161 39.3996 31.4985C38.9924 32.1809 38.4504 32.779 37.8044 33.2586C37.1583 33.7383 36.421 34.0901 35.6344 34.2941C34.8479 34.498 34.0275 34.55 33.2202 34.4472C32.4129 34.3443 31.6344 34.0886 30.9292 33.6947C30.224 33.3007 29.6059 32.7762 29.1102 32.1511C28.6144 31.526 28.2508 30.8125 28.0401 30.0514C27.8293 29.2903 27.7755 28.4965 27.8818 27.7153C27.9881 26.9342 28.2524 26.1809 28.6595 25.4985C29.0667 24.8161 29.6087 24.218 30.2548 23.7384C30.9008 23.2587 31.6381 22.9069 32.4247 22.7029C33.2112 22.499 34.0316 22.447 34.8389 22.5498C35.6463 22.6527 36.4248 22.9084 37.13 23.3024L37.1299 23.3024Z" stroke="#007DD0" stroke-width="2"/>
<path d="M30.9294 33.6955C31.5458 34.0399 32.2181 34.2782 32.9167 34.4016C31.5088 35.5725 29.9175 36.5217 28.2 37.2102C26.0752 38.0617 23.7987 38.5001 21.5007 38.5002C19.2025 38.5002 16.9255 38.0618 14.8005 37.2102L14.4041 37.0461C12.8373 36.374 11.3819 35.4823 10.0828 34.4016C10.7812 34.2782 11.4539 34.0398 12.0701 33.6955C12.1409 33.6559 12.21 33.6137 12.2791 33.5715C13.1841 34.2162 14.161 34.7655 15.1931 35.2082L15.5447 35.3537C17.4319 36.1101 19.4562 36.5002 21.5007 36.5002C23.545 36.5001 25.5688 36.11 27.4558 35.3537C28.6175 34.8881 29.7124 34.2882 30.7195 33.5715C30.7887 33.6138 30.8584 33.6558 30.9294 33.6955ZM15.6638 5.46994C15.422 6.12047 15.2986 6.80747 15.2986 7.50021C15.2986 7.58189 15.301 7.66387 15.3044 7.74533L15.1931 7.79221C13.4447 8.54221 11.8547 9.59828 10.5037 10.9055L10.2371 11.1692C8.92141 12.5064 7.87278 14.0669 7.14331 15.7707L7.00171 16.1135C6.3625 17.7173 6.01319 19.4152 5.96948 21.132L5.9646 21.5002C5.9646 22.0689 5.99765 22.6365 6.06421 23.1994C5.99857 23.2331 5.93335 23.2679 5.8689 23.3039C5.25959 23.6443 4.71504 24.0819 4.25854 24.5979C4.09005 23.7156 3.99335 22.8197 3.97046 21.9192L3.9646 21.5002C3.96465 19.403 4.36494 17.3251 5.14331 15.3723L5.30444 14.9836C6.13313 13.048 7.32299 11.2796 8.81128 9.76682L9.11304 9.46799C10.6407 7.98991 12.4351 6.79904 14.4041 5.95432L14.8005 5.79025C15.0857 5.67599 15.3736 5.56927 15.6638 5.46994ZM27.3328 5.46896C27.4892 5.52245 27.6456 5.57714 27.8005 5.63498L28.2 5.79025C30.1921 6.58873 32.0159 7.73637 33.5789 9.17599L33.8884 9.46799C35.4162 10.9464 36.6496 12.6859 37.5261 14.5988L37.696 14.9836C38.5799 17.0484 39.0358 19.2632 39.0359 21.5002C39.0359 22.5419 38.9349 23.5788 38.74 24.5979C38.2835 24.0819 37.739 23.6443 37.1296 23.3039C37.065 23.2678 36.9992 23.2342 36.9333 23.2004C36.9999 22.6371 37.0359 22.0693 37.0359 21.5002C37.0358 19.5352 36.6361 17.5881 35.8582 15.7707L35.7078 15.4319C34.9361 13.7477 33.8486 12.2126 32.4978 10.9055L32.2244 10.6467C30.9043 9.4307 29.3701 8.44892 27.6941 7.74533C27.6975 7.66387 27.7 7.58189 27.7 7.50021C27.6999 6.80692 27.5749 6.11995 27.3328 5.46896Z" fill="#007DD0"/>
</svg>
