<svg width="25" height="25" viewBox="0 0 25 25" fill="none" xmlns="http://www.w3.org/2000/svg">
<path d="M15 21.74V16.74C15 16.1877 14.5523 15.74 14 15.74H11C10.4477 15.74 10 16.1877 10 16.74V21.74" stroke="#7D7D7D" stroke-linecap="round" stroke-linejoin="round"/>
<path d="M5.5 11.74V17.74C5.5 19.6256 5.5 20.5684 6.08579 21.1542C6.67157 21.74 7.61438 21.74 9.5 21.74H15.5C17.3856 21.74 18.3284 21.74 18.9142 21.1542C19.5 20.5684 19.5 19.6256 19.5 17.74V11.74" stroke="#7D7D7D"/>
<path d="M5.12127 5.25492C5.30316 4.52736 5.3941 4.16358 5.66536 3.95178C5.93663 3.73999 6.3116 3.73999 7.06155 3.73999H17.9384C18.6884 3.73999 19.0634 3.73999 19.3346 3.95178C19.6059 4.16358 19.6968 4.52736 19.8787 5.25492L21.0823 10.0694C21.1792 10.4567 21.2276 10.6504 21.2169 10.8077C21.1892 11.2157 20.916 11.5657 20.5269 11.6915C20.3769 11.74 20.1726 11.74 19.7641 11.74V11.74C19.2309 11.74 18.9644 11.74 18.7405 11.6878C18.1133 11.5417 17.5948 11.1025 17.3475 10.5078C17.2593 10.2955 17.2164 10.0385 17.1308 9.52456V9.52456C17.1068 9.38075 17.0948 9.30885 17.0812 9.28993C17.0413 9.23438 16.9587 9.23438 16.9188 9.28993C16.9052 9.30885 16.8932 9.38075 16.8692 9.52456L16.7877 10.0138C16.7791 10.0657 16.7747 10.0916 16.7704 10.1143C16.5939 11.0405 15.7946 11.7177 14.852 11.7395C14.8289 11.74 14.8026 11.74 14.75 11.74V11.74C14.6974 11.74 14.6711 11.74 14.648 11.7395C13.7054 11.7177 12.9061 11.0405 12.7296 10.1143C12.7253 10.0916 12.7209 10.0657 12.7123 10.0138L12.6308 9.52456C12.6068 9.38075 12.5948 9.30885 12.5812 9.28993C12.5413 9.23438 12.4587 9.23438 12.4188 9.28993C12.4052 9.30885 12.3932 9.38075 12.3692 9.52456L12.2877 10.0138C12.2791 10.0657 12.2747 10.0916 12.2704 10.1143C12.0939 11.0405 11.2946 11.7177 10.352 11.7395C10.3289 11.74 10.3026 11.74 10.25 11.74V11.74C10.1974 11.74 10.1711 11.74 10.148 11.7395C9.20541 11.7177 8.40606 11.0405 8.2296 10.1143C8.22527 10.0916 8.22095 10.0657 8.2123 10.0138L8.13076 9.52456C8.10679 9.38075 8.09481 9.30885 8.08122 9.28993C8.04132 9.23438 7.95868 9.23438 7.91878 9.28993C7.90519 9.30885 7.89321 9.38075 7.86924 9.52456V9.52456C7.78357 10.0385 7.74074 10.2955 7.65249 10.5078C7.40524 11.1025 6.88675 11.5417 6.25951 11.6878C6.03563 11.74 5.76905 11.74 5.23591 11.74V11.74C4.82737 11.74 4.62309 11.74 4.47306 11.6915C4.08403 11.5657 3.81078 11.2157 3.78307 10.8077C3.77239 10.6504 3.82081 10.4567 3.91765 10.0694L5.12127 5.25492Z" stroke="#7D7D7D"/>
</svg>
