<svg width="138" height="26" viewBox="0 0 138 26" fill="none" xmlns="http://www.w3.org/2000/svg">
<path d="M13 0.0632324L15.8064 8.70052H24.8882L17.5409 14.0387L20.3473 22.6759L13 17.3378L5.65268 22.6759L8.45911 14.0387L1.11179 8.70052H10.1936L13 0.0632324Z" fill="#FFC15E"/>
<path d="M41 0.0632324L43.8064 8.70052H52.8882L45.5409 14.0387L48.3473 22.6759L41 17.3378L33.6527 22.6759L36.4591 14.0387L29.1118 8.70052H38.1936L41 0.0632324Z" fill="#FFC15E"/>
<path d="M69 0.0632324L71.8064 8.70052H80.8882L73.5409 14.0387L76.3473 22.6759L69 17.3378L61.6527 22.6759L64.4591 14.0387L57.1118 8.70052H66.1936L69 0.0632324Z" fill="#FFC15E"/>
<path d="M97 0.0632324L99.8064 8.70052H108.888L101.541 14.0387L104.347 22.6759L97 17.3378L89.6527 22.6759L92.4591 14.0387L85.1118 8.70052H94.1936L97 0.0632324Z" fill="#FFC15E"/>
<path d="M125 0.0632324L127.806 8.70052H136.888L129.541 14.0387L132.347 22.6759L125 17.3378L117.653 22.6759L120.459 14.0387L113.112 8.70052H122.194L125 0.0632324Z" fill="#FFC15E"/>
</svg>
