<svg width="37" height="36" viewBox="0 0 37 36" fill="none" xmlns="http://www.w3.org/2000/svg">
<rect x="0.616145" y="0.275904" width="35.4482" height="35.4482" rx="6.34579" stroke="#B8CDF9" stroke-width="0.551808"/>
<g clip-path="url(#clip0_1_329)">
<path d="M22.8285 14.3284C21.9283 14.3284 21.1964 15.0603 21.1964 15.9604C21.1964 16.8605 21.9283 17.5925 22.8285 17.5925C23.7286 17.5925 24.4605 16.8605 24.4605 15.9604C24.4605 15.0603 23.7286 14.3284 22.8285 14.3284Z" fill="#8B939F"/>
<path d="M18.2864 13.6856L20.0169 12.532C20.3897 12.2837 20.4946 11.7779 20.2432 11.4004C19.9941 11.0267 19.4875 10.9216 19.1116 11.1741L16.6635 12.8061C16.2701 13.0689 16.1855 13.6044 16.4634 13.9748L18.3401 16.5042L14.1812 19.277C14.6368 19.385 15.0697 19.586 15.453 19.8927C15.7439 20.1251 16.0809 20.1255 16.3714 19.8927C16.952 19.4285 17.6397 19.1831 18.3605 19.1831C19.0813 19.1831 19.769 19.4285 20.3492 19.8927C20.64 20.1251 20.9771 20.1255 21.2676 19.8927C21.6322 19.6012 22.0419 19.407 22.4727 19.2947L18.2864 13.6856Z" fill="#8B939F"/>
<path d="M25.0752 20.7294C24.9672 20.6764 24.862 20.6091 24.7629 20.5298C23.8783 19.8221 22.6621 19.8221 21.7775 20.5298C21.1894 21.0007 20.4276 21.0007 19.8395 20.5298C18.9549 19.8221 17.7659 19.8221 16.8814 20.5298C16.2933 21.0007 15.5314 21.0007 14.9433 20.5298C14.0587 19.8221 12.843 19.8221 11.9584 20.5298C11.8492 20.617 11.7329 20.6891 11.613 20.7449C11.4687 20.8119 11.3766 20.9561 11.3766 21.1151V22.4525C11.5804 22.3959 11.7787 22.3055 11.958 22.1622C12.8426 21.4537 14.0587 21.4542 14.9433 22.1618C15.5314 22.6328 16.2933 22.6328 16.8814 22.1618C17.7659 21.4542 18.9549 21.4542 19.8395 22.1618C20.4276 22.6328 21.1894 22.6328 21.7775 22.1618C22.6621 21.4542 23.8783 21.4542 24.7629 22.1618C24.9302 22.296 25.1147 22.3784 25.3036 22.4365V21.0956C25.3035 20.9398 25.2151 20.7979 25.0752 20.7294Z" fill="#8B939F"/>
<path d="M24.2528 22.7993C23.6647 22.3284 22.8757 22.3284 22.2876 22.7993C21.403 23.507 20.214 23.507 19.3295 22.7993C18.7413 22.3284 17.9795 22.3284 17.3914 22.7993C16.5068 23.507 15.3179 23.507 14.4333 22.7993C13.8452 22.3284 13.0561 22.3284 12.468 22.7993C12.1359 23.0645 11.7629 23.2308 11.3766 23.2983V24.5558C11.3766 24.7813 11.5591 24.9638 11.7847 24.9638H24.8955C25.121 24.9638 25.3035 24.7813 25.3035 24.5558V23.291C24.9332 23.219 24.5744 23.0562 24.2528 22.7993Z" fill="#8B939F"/>
</g>
<defs>
<clipPath id="clip0_1_329">
<rect width="13.9277" height="13.9277" fill="white" transform="translate(11.3764 11.0361)"/>
</clipPath>
</defs>
</svg>
