<svg width="16" height="13" viewBox="0 0 16 13" fill="none" xmlns="http://www.w3.org/2000/svg">
<path d="M15.2317 2.02685C14.6793 2.27121 14.0962 2.42393 13.4824 2.51556C14.0962 2.14903 14.5872 1.56868 14.8021 0.866156C14.2189 1.20215 13.5744 1.4465 12.8685 1.59923C12.3161 1.01888 11.5181 0.652344 10.6588 0.652344C9.00144 0.652344 7.65103 1.9963 7.65103 3.64571C7.65103 3.89007 7.68173 4.10388 7.74311 4.31769C5.25713 4.19551 3.01667 3.00428 1.51281 1.1716C1.26728 1.62977 1.11382 2.11848 1.11382 2.66828C1.11382 3.7068 1.63557 4.62314 2.46423 5.17294C1.97317 5.14239 1.51281 5.02022 1.08313 4.8064V4.83695C1.08313 6.30309 2.12663 7.52487 3.50773 7.79977C3.2622 7.86086 2.98598 7.8914 2.70976 7.8914C2.52561 7.8914 2.31078 7.86086 2.12663 7.83032C2.52562 9.02155 3.6305 9.90735 4.95021 9.90735C3.90672 10.7015 2.61769 11.1902 1.2059 11.1902C0.960367 11.1902 0.714838 11.1902 0.5 11.1597C1.85041 12.0149 3.41566 12.5036 5.13436 12.5036C10.6895 12.5036 13.7279 7.92195 13.7279 3.95116C13.7279 3.82898 13.7279 3.67626 13.7279 3.55408C14.311 3.157 14.8328 2.63774 15.2317 2.02685Z" fill="#F0F0F0"/>
</svg>
