<svg width="16" height="16" viewBox="0 0 16 16" fill="none" xmlns="http://www.w3.org/2000/svg">
<path d="M0.875 7.73999C0.875 4.38123 0.875 2.70185 1.91843 1.65842C2.96186 0.61499 4.64124 0.61499 8 0.61499C11.3588 0.61499 13.0381 0.61499 14.0816 1.65842C15.125 2.70185 15.125 4.38123 15.125 7.73999C15.125 11.0987 15.125 12.7781 14.0816 13.8216C13.0381 14.865 11.3588 14.865 8 14.865C4.64124 14.865 2.96186 14.865 1.91843 13.8216C0.875 12.7781 0.875 11.0987 0.875 7.73999Z" stroke="#626262" stroke-width="1.125"/>
<path d="M5 6.47516C5.86163 5.85208 6.89065 5.48999 7.99592 5.48999C9.10468 5.48999 10.1367 5.85437 11 6.48107M9.63069 8.48999C9.13862 8.21724 8.58343 8.06378 7.99592 8.06378C7.41137 8.06378 6.85881 8.2157 6.36858 8.48589" stroke="#626262" stroke-width="1.125" stroke-linecap="round"/>
<path d="M8 10.74H8.00476" stroke="#626262" stroke-width="1.5" stroke-linecap="round" stroke-linejoin="round"/>
</svg>
