<svg width="36" height="36" viewBox="0 0 36 36" fill="none" xmlns="http://www.w3.org/2000/svg">
<rect x="0.775904" y="0.618067" width="34.7639" height="34.7639" rx="6.34579" stroke="#B8CDF9" stroke-width="0.551808"/>
<path d="M20.4699 12.4819H15.8458C13.8372 12.4819 12.6398 13.6794 12.6398 15.6879V20.3066C12.6398 22.3207 13.8372 23.5181 15.8458 23.5181H20.4644C22.473 23.5181 23.6704 22.3207 23.6704 20.3121V15.6879C23.6759 13.6794 22.4785 12.4819 20.4699 12.4819ZM19.6974 20.5383C19.6146 20.6432 19.4932 20.6984 19.3718 20.6984C19.2835 20.6984 19.1953 20.6708 19.118 20.6101C18.5331 20.1576 17.7771 20.1576 17.1922 20.6101C17.0101 20.748 16.7507 20.7149 16.6128 20.5383C16.4748 20.3562 16.508 20.0969 16.6845 19.9589C17.5619 19.2802 18.7428 19.2802 19.6202 19.9589C19.8078 20.0969 19.8409 20.3562 19.6974 20.5383ZM20.9169 18.8332C20.8341 18.9381 20.7127 18.9933 20.5913 18.9933C20.503 18.9933 20.4148 18.9657 20.3375 18.905C19.0132 17.8841 17.3081 17.8841 15.9837 18.905C15.8016 19.0484 15.5423 19.0153 15.3988 18.8332C15.2553 18.6511 15.294 18.3918 15.4706 18.2538C17.0984 16.9957 19.2063 16.9957 20.8341 18.2538C21.0217 18.3918 21.0549 18.6511 20.9169 18.8332ZM21.7943 17.1282C21.7115 17.233 21.5901 17.2882 21.4687 17.2882C21.3804 17.2882 21.2921 17.2606 21.2149 17.1999C19.3553 15.7652 16.9549 15.7652 15.1008 17.1999C14.9187 17.3378 14.6594 17.3047 14.5214 17.1282C14.3835 16.9461 14.4166 16.6867 14.5932 16.5488C16.7563 14.8768 19.5539 14.8768 21.7225 16.5488C21.9046 16.6867 21.9377 16.9461 21.7943 17.1282Z" fill="#8B939F"/>
</svg>
